/* XPM */
static char * autoplace_xpm[] = {
"16 16 8 1",
" 	c None",
".	c None",
"+	c #000000",
"@	c #008080",
"#	c #0000FF",
"$	c #008000",
"%	c #FF0000",
"&	c #0080FF",
"................",
".......+.+......",
"................",
"...@##..+.......",
".@@@$@@#.%%+++..",
".#@#&@@#.%%++++.",
"##$@#@$@@....+++",
"#&@@&#&#&....+++",
"##&#&#@&#....+++",
".@@@$#@@.%%++++.",
".##$#@@@.%%+++..",
"...#$#..+.......",
"................",
".......+.+......",
"................",
"................"};
