/* XPM */
static char * autoplace_xpm[] = {
"16 15 3 1",
" 	c None",
".	c #7F7FD3",
"+	c #FFFFFF",
"             .  ",
"           ..+. ",
"    .......+..+.",
"   .+.++++..+.+.",
"  .+++++++..+.+.",
" .++. .....+..+.",
" .+..      ..+. ",
" .+..        .  ",
" .+..      ..+. ",
" .++. .....+..+.",
"  .+++++++..+.+.",
"   .+.++++..+.+.",
"    .......+..+.",
"           ..+. ",
"             .  "};
