/* XPM */
static char * filesave_xpm[] = {
"16 15 3 1",
" 	c None",
".	c #E6E6E6",
"+	c #3434FC",
"  ............  ",
" +.++++++++++.+ ",
" +.+........+.+ ",
" +.+.++++++.+.+ ",
" +.+........+.+ ",
" +.+.++++.+.+.+ ",
" +.+........+.+ ",
" +.++++++++++.+ ",
" +.++++++++++.+ ",
" +.++......++.+ ",
" +.++.++...++.+ ",
" +.++.++...++.+ ",
" +.++.++...++.+ ",
" +............+ ",
" ++++++++++++++ "};
