/* XPM */
static char * inspect_xpm[] = {
"16 16 5 1",
" 	c None",
".	c None",
"+	c #004040",
"@	c #000000",
"#	c #FF0000",
"................",
"................",
"...........+....",
".......+.......+",
"...@@@...+.+.+..",
"..@@@@@.........",
"#@@@.@@#..+++...",
"@@@......++@++..",
"@@.......+@#@@..",
"@@@......++@++..",
"#@@@.@@#..+++...",
"..@@@@@.........",
"...@@@...+.+.+..",
"................",
"........+..+..+.",
"................"};
