/* XPM */
static char * mainframe_xpm[] = {
"32 32 455 2",
"  	c None",
". 	c #153E0C",
"+ 	c #4D7045",
"@ 	c #7A9474",
"# 	c #7B9475",
"$ 	c #7C9676",
"% 	c #93A78D",
"& 	c #9EB099",
"* 	c #072701",
"= 	c #1C4412",
"- 	c #466A3D",
"; 	c #486C3F",
"> 	c #486B3F",
", 	c #4A6D41",
"' 	c #698661",
") 	c #7B9575",
"! 	c #061D00",
"~ 	c #092E00",
"{ 	c #0D3C01",
"] 	c #0E3D03",
"^ 	c #0E3C03",
"/ 	c #0E3A03",
"( 	c #0D3802",
"_ 	c #0D3902",
": 	c #0E3B03",
"< 	c #0E3D02",
"[ 	c #103E04",
"} 	c #365D2C",
"| 	c #56774D",
"1 	c #0A2E00",
"2 	c #0C3B00",
"3 	c #0B3A00",
"4 	c #0C3702",
"5 	c #1A3F0D",
"6 	c #113806",
"7 	c #0A3400",
"8 	c #0A3600",
"9 	c #0B3900",
"0 	c #0C3A00",
"a 	c #335B29",
"b 	c #54754B",
"c 	c #0A3800",
"d 	c #183E0B",
"e 	c #677844",
"f 	c #5B703E",
"g 	c #284817",
"h 	c #193D0B",
"i 	c #0D3502",
"j 	c #0B3700",
"k 	c #345B29",
"l 	c #0B3800",
"m 	c #153C09",
"n 	c #617443",
"o 	c #828D60",
"p 	c #919E78",
"q 	c #708358",
"r 	c #2E4D1B",
"s 	c #0F3704",
"t 	c #0C3900",
"u 	c #0C3701",
"v 	c #1F4111",
"w 	c #536A3B",
"x 	c #9EA49D",
"y 	c #EFEFEC",
"z 	c #AFB89E",
"A 	c #3E5B2B",
"B 	c #0B3500",
"C 	c #0B3301",
"D 	c #34521F",
"E 	c #828D88",
"F 	c #DDE2E7",
"G 	c #F1F2ED",
"H 	c #84946F",
"I 	c #0F3604",
"J 	c #0A3500",
"K 	c #274816",
"L 	c #808D80",
"M 	c #CFD8E4",
"N 	c #F7F7F4",
"O 	c #BDC4AD",
"P 	c #1B3F0C",
"Q 	c #0A3700",
"R 	c #0B3300",
"S 	c #284916",
"T 	c #7E8A7E",
"U 	c #CAD4E3",
"V 	c #F1F2E9",
"W 	c #D3D6C4",
"X 	c #254613",
"Y 	c #0B3600",
"Z 	c #092D00",
"` 	c #0C3800",
" .	c #0E3703",
"..	c #153909",
"+.	c #3D5927",
"@.	c #4E6736",
"#.	c #466030",
"$.	c #335120",
"%.	c #0B3501",
"&.	c #34511E",
"*.	c #7E8A8C",
"=.	c #BCC7D5",
"-.	c #CACABC",
";.	c #C2C6B7",
">.	c #2A4A17",
",.	c #0D3702",
"'.	c #2E4E1C",
").	c #5C7340",
"!.	c #738559",
"~.	c #B4BBA1",
"{.	c #D2D5C3",
"].	c #CAD0BD",
"^.	c #AFB79C",
"/.	c #6C8053",
"(.	c #33511F",
"_.	c #103604",
":.	c #0E3504",
"<.	c #425C2B",
"[.	c #9AA5B2",
"}.	c #D2DCE3",
"|.	c #E8E8DD",
"1.	c #B4B9A5",
"2.	c #234512",
"3.	c #103905",
"4.	c #475F2E",
"5.	c #7F8552",
"6.	c #747C61",
"7.	c #7E8580",
"8.	c #8E9398",
"9.	c #CCD0D6",
"0.	c #F1F1F4",
"a.	c #EFEEEB",
"b.	c #BEC4AC",
"c.	c #5A7142",
"d.	c #1C3D0E",
"e.	c #1A3A0D",
"f.	c #5A6C47",
"g.	c #BCC7DC",
"h.	c #D9DED3",
"i.	c #D8D8D2",
"j.	c #758260",
"k.	c #123607",
"l.	c #0A3101",
"m.	c #133907",
"n.	c #153908",
"o.	c #123806",
"p.	c #0C3402",
"q.	c #0D3B01",
"r.	c #294A18",
"s.	c #476130",
"t.	c #445E2E",
"u.	c #576C3F",
"v.	c #5C6A4B",
"w.	c #848D93",
"x.	c #BDC5D2",
"y.	c #D7D8DA",
"z.	c #D6D6D6",
"A.	c #C9CEBC",
"B.	c #607548",
"C.	c #324D1F",
"D.	c #6C7863",
"E.	c #CED8E7",
"F.	c #D8DCC3",
"G.	c #C3C6B7",
"H.	c #4A6135",
"I.	c #0F3005",
"J.	c #47612C",
"K.	c #576E3C",
"L.	c #5C7242",
"M.	c #536B39",
"N.	c #1A3D0C",
"O.	c #0C3801",
"P.	c #345A29",
"Q.	c #0A3200",
"R.	c #123707",
"S.	c #304F1E",
"T.	c #596D3F",
"U.	c #657065",
"V.	c #B0B9C4",
"W.	c #CACDCE",
"X.	c #E3E2E3",
"Y.	c #D4D7C8",
"Z.	c #6F7F50",
"`.	c #818B87",
" +	c #CCD8E4",
".+	c #DADFCC",
"++	c #C6CBB3",
"@+	c #465C2F",
"#+	c #53693B",
"$+	c #909E80",
"%+	c #BEC8C6",
"&+	c #CCD6DE",
"*+	c #D5DEE1",
"=+	c #C5CCC2",
"-+	c #A4AB8B",
";+	c #7B8A5C",
">+	c #405B2A",
",+	c #1A3E0C",
"'+	c #335929",
")+	c #0B3201",
"!+	c #284718",
"~+	c #55693C",
"{+	c #7E8881",
"]+	c #BEC6CB",
"^+	c #CDCECD",
"/+	c #ECEBEC",
"(+	c #A2A88B",
"_+	c #6F7982",
":+	c #B2BECC",
"<+	c #C6CAAE",
"[+	c #CCCFC0",
"}+	c #7A8A5A",
"|+	c #97A195",
"1+	c #BEC8D9",
"2+	c #C9D3E4",
"3+	c #D7DDDF",
"4+	c #C9CAB7",
"5+	c #8E9070",
"6+	c #7E835B",
"7+	c #7E8656",
"8+	c #838A50",
"9+	c #3A5824",
"0+	c #315729",
"a+	c #0B3401",
"b+	c #0C3302",
"c+	c #0B2E03",
"d+	c #244116",
"e+	c #5D6D48",
"f+	c #727D7B",
"g+	c #A2AAB1",
"h+	c #B0B1B1",
"i+	c #ADAEA8",
"j+	c #767E8A",
"k+	c #B2BDCF",
"l+	c #D5DACE",
"m+	c #A4FB3C",
"n+	c #8AFF00",
"o+	c #82E908",
"p+	c #2C4D1A",
"q+	c #325829",
"r+	c #143808",
"s+	c #2B4C1A",
"t+	c #365422",
"u+	c #3A5526",
"v+	c #385125",
"w+	c #5E7141",
"x+	c #55604D",
"y+	c #A9B4BF",
"z+	c #A8ACAB",
"A+	c #A1A1A1",
"B+	c #81868E",
"C+	c #9AA5BA",
"D+	c #D7DFE4",
"E+	c #99FE21",
"F+	c #5BAD06",
"G+	c #123A07",
"H+	c #0E3603",
"I+	c #32511F",
"J+	c #6A7D4E",
"K+	c #A8AF8E",
"L+	c #BCC0A6",
"M+	c #B7BA99",
"N+	c #B4B894",
"O+	c #A3AB7D",
"P+	c #737B52",
"Q+	c #A7B1BB",
"R+	c #C4CED2",
"S+	c #DFDEDA",
"T+	c #BDBDB5",
"U+	c #B3BCC9",
"V+	c #D3DDED",
"W+	c #F6F6F3",
"X+	c #B4F25E",
"Y+	c #ADDE72",
"Z+	c #6C7757",
"`+	c #385625",
" @	c #6ACD00",
".@	c #2E6F00",
"+@	c #0C3901",
"@@	c #092C00",
"#@	c #89976F",
"$@	c #D4D7C7",
"%@	c #F0F0E9",
"&@	c #C3C3BD",
"*@	c #ABABA6",
"=@	c #C0C0BB",
"-@	c #D9D9BF",
";@	c #C1C185",
">@	c #B0B7B0",
",@	c #C9D5E5",
"'@	c #E5E8E2",
")@	c #DEDDC4",
"!@	c #BFC2A8",
"~@	c #D6DFF0",
"{@	c #EFF1F0",
"]@	c #A1F932",
"^@	c #9DB67D",
"/@	c #4F6737",
"(@	c #5FB702",
"_@	c #74DD00",
":@	c #81F100",
"<@	c #85F800",
"[@	c #0E4000",
"}@	c #061C00",
"|@	c #092901",
"1@	c #2D4C1C",
"2@	c #6B7A55",
"3@	c #BFC1BE",
"4@	c #CCD2D9",
"5@	c #C8D0DD",
"6@	c #C8D3E5",
"7@	c #C5CFDF",
"8@	c #C0CAD5",
"9@	c #CBD0D2",
"0@	c #E2E4D7",
"a@	c #C5C69E",
"b@	c #C2C8C0",
"c@	c #D6DDDA",
"d@	c #E3E4C4",
"e@	c #B1B167",
"f@	c #C1C3AE",
"g@	c #ECF1EB",
"h@	c #8DFE07",
"i@	c #8CFE05",
"j@	c #98A37F",
"k@	c #2C5810",
"l@	c #7DEB00",
"m@	c #75DE00",
"n@	c #53AA00",
"o@	c #051B00",
"p@	c #15310A",
"q@	c #647646",
"r@	c #676F56",
"s@	c #6C7865",
"t@	c #6E7A6B",
"u@	c #707C75",
"v@	c #7F898B",
"w@	c #9BA4B2",
"x@	c #B0BAD1",
"y@	c #C3CFE4",
"z@	c #D5DEEE",
"A@	c #D3D6C6",
"B@	c #A7A887",
"C@	c #C6C7A3",
"D@	c #E2E2C3",
"E@	c #CBCB8C",
"F@	c #BAB999",
"G@	c #D2ECA7",
"H@	c #5EBB00",
"I@	c #051A00",
"J@	c #243E18",
"K@	c #797F4B",
"L@	c #647743",
"M@	c #355321",
"N@	c #365421",
"O@	c #405C29",
"P@	c #4E6733",
"Q@	c #56683B",
"R@	c #596648",
"S@	c #757E7B",
"T@	c #A2ACB8",
"U@	c #BCC8D5",
"V@	c #ADB3B0",
"W@	c #AEAE8F",
"X@	c #C3C5A8",
"Y@	c #AEB09A",
"Z@	c #A2A287",
"`@	c #8ABF45",
" #	c #3F8A00",
".#	c #18340D",
"+#	c #4A6231",
"@#	c #294818",
"##	c #0A3201",
"$#	c #0C3401",
"%#	c #0D3403",
"&#	c #123807",
"*#	c #244514",
"=#	c #3B5826",
"-#	c #5C6E41",
";#	c #5F6952",
">#	c #8A927F",
",#	c #BABCAD",
"'#	c #A1A396",
")#	c #A3A59D",
"!#	c #6F7780",
"~#	c #96978C",
"{#	c #80D125",
"]#	c #87AA3E",
"^#	c #3A5525",
"/#	c #80EF00",
"(#	c #1F5800",
"_#	c #092B00",
":#	c #0C3601",
"<#	c #1E3F11",
"[#	c #556A39",
"}#	c #757666",
"|#	c #909396",
"1#	c #9CA6B7",
"2#	c #D0D9E0",
"3#	c #ADB9CC",
"4#	c #CAD2D7",
"5#	c #8AF50F",
"6#	c #A7B98C",
"7#	c #496333",
"8#	c #72DA00",
"9#	c #61BF00",
"0#	c #50A500",
"a#	c #76E000",
"b#	c #0C3403",
"c#	c #3B5726",
"d#	c #646A5D",
"e#	c #5F696C",
"f#	c #6C7779",
"g#	c #89949D",
"h#	c #949FAF",
"i#	c #A9C2B0",
"j#	c #86ED0F",
"k#	c #8C9694",
"l#	c #576E42",
"m#	c #0D3D00",
"n#	c #84F600",
"o#	c #7AE700",
"p#	c #193E0B",
"q#	c #496430",
"r#	c #4F6835",
"s#	c #4F6834",
"t#	c #526A37",
"u#	c #566A3D",
"v#	c #689E27",
"w#	c #79D012",
"x#	c #4D6635",
"y#	c #2B4B1A",
"z#	c #246100",
"A#	c #5BB500",
"B#	c #0B3701",
"C#	c #103705",
"D#	c #113706",
"E#	c #143908",
"F#	c #6ECE04",
"G#	c #3B8400",
"H#	c #78E200",
"I#	c #1B5300",
"J#	c #345C2A",
"K#	c #54754C",
"L#	c #315926",
"M#	c #53744A",
"N#	c #041600",
"O#	c #072200",
"P#	c #103806",
"Q#	c #274F1D",
"R#	c #031000",
"S#	c #041300",
"T#	c #041700",
"U#	c #061E00",
"V#	c #0A2E01",
". + @ # # # # # # # # # # # # # # # # # # # # # # # # # # $ % & ",
"* = - ; ; ; ; ; ; ; ; ; ; ; > > ; ; ; ; ; ; ; ; ; ; ; ; ; , ' ) ",
"! ~ { ] ] ] ] ] ] ] ] ] ^ / ( _ : ^ ] ] ] ] ] ] ] ] ] ] < [ } | ",
"! 1 2 2 2 2 2 2 2 2 2 2 3 4 5 6 7 8 9 0 2 2 2 2 2 2 2 2 3 { a b ",
"! 1 2 2 2 2 2 2 2 2 2 2 c d e f g h i j 2 2 2 2 2 2 2 2 2 { k b ",
"! 1 2 2 2 2 2 2 2 2 2 2 l m n o p q r s t 2 2 2 2 2 2 2 2 { k b ",
"! 1 2 2 2 2 2 2 2 2 2 2 0 u v w x y z A B 0 2 2 2 2 2 2 2 { k b ",
"! 1 2 2 2 2 2 2 2 2 2 2 2 t C D E F G H I 9 2 2 2 2 2 2 2 { k b ",
"! 1 2 2 2 0 t 9 9 0 0 2 2 2 J K L M N O P Q 2 2 2 2 2 2 2 { k b ",
"! 1 0 t j 8 7 R R 7 j 9 2 2 J S T U V W X Y 2 2 2 2 2 2 2 { k b ",
"! Z `  ...v +.@.#.$.h i j t %.&.*.=.-.;.>.Y 2 2 2 2 2 2 2 { k b ",
"! Z ,.'.).!.~.{.].^./.(._.B :.<.[.}.|.1.2.J 9 l l l 0 2 2 { k b ",
"! Z 3.4.5.6.7.8.9.0.a.b.c.d.e.f.g.h.i.j.k.l.I m.n.o.p.J 9 q.k b ",
"! Z ,.r.s.t.u.v.w.x.y.z.A.B.C.D.E.F.G.H.I.g J.K.L.M.D N.C O.P.b ",
"! 1 t Y R Q.R.S.T.U.V.W.X.Y.Z.`. +.+++@+#+$+%+&+*+=+-+;+>+,+'+b ",
"! 1 2 t l j J )+!+~+{+]+^+/+(+_+:+<+[+}+|+1+2+3+4+5+6+7+8+9+0+b ",
"! 1 2 2 t Y a+b+c+d+e+f+g+h+i+j+k+l+m+n+n+n+n+n+n+n+n+n+o+p+q+b ",
"! 1 0 t a+r+s+t+u+v+w+x+y+z+A+B+C+D+E+n+n+n+n+n+n+n+n+n+F+G+'+b ",
"! Z j H+I+J+K+L+M+N+O+P+Q+R+S+T+U+V+W+X+n+Y+Z+`+)+8  @n+.@+@P.b ",
"! @@i '.#@$@%@&@*@=@-@;@>@,@'@)@!@~@{@]@n+^@/@(@_@0 :@<@[@{ k b ",
"}@|@1@2@3@4@5@6@7@8@9@0@a@b@c@d@e@f@g@h@i@j@k@n+l@2 m@n@2 { k b ",
"o@p@q@r@s@t@u@v@w@x@y@z@A@B@C@D@E@F@G@n+n+n+n+n+H@2 2 2 2 { k b ",
"I@J@K@L@M@N@O@P@Q@R@S@T@U@V@W@X@Y@Z@`@n+n+n+n+n+ #2 2 2 2 { k b ",
"I@.#+#@###$#%#&#*#=#-#;#>#,#'#)#!#~#{#n+]#^#/#n+(#2 2 2 2 { k b ",
"}@_#H+:#t 0 9 l 8 Q.<#[#}#|#1#2#3#4#5#n+6#7#8#9#2 2 0#a#2 { k b ",
"}@Z l 9 2 2 2 2 0 l b#c#d#e#f#g#h#i#n+j#k#l#7 0 2 m#n#o#2 { k b ",
"! 1 2 2 2 2 2 2 2 2 j p#q#r#s#t#u#v#n+w#x#y#8 0 2 z#n+A#2 { k b ",
"! 1 2 2 2 2 2 2 2 2 0 B#C#D#D#E#F#n+n+n+n+n+n+n+n+n+n+G#2 { k b ",
"! 1 2 2 2 2 2 2 2 2 2 0 9 l l l H#n+n+n+n+n+n+n+n+n+n+I#2 { J#K#",
"! 1 0 0 0 0 0 0 0 0 0 0 2 0 0 0 0 0 0 0 0 2 0 0 0 0 0 0 0 q.L#M#",
"N#O#@@@@@@@@@@@@@@@@@@@@@@@@@@@@@@@@@@@@@@@@@@@@@@@@@@@@@@@@P#Q#",
"R#S#T#T#T#T#T#T#T#T#T#T#T#T#T#T#T#T#T#T#T#T#T#T#T#T#T#T#T#T#U#V#"};
