/* XPM */
static char * move_xpm[] = {
"16 15 3 1",
" 	c None",
".	c #3434FC",
"+	c #E6E6E6",
"       .        ",
"      .+.       ",
"     .+++.      ",
"    .+++++.     ",
"   .  .+.  .    ",
"  .+  .+.  +.   ",
" .++...+...++.  ",
".+++++++++++++. ",
" .++...+...++.  ",
"  .+  .+.  +.   ",
"   .  .+.  .    ",
"    .+++++.     ",
"     .+++.      ",
"      .+.       ",
"       .        "};
