/* XPM */
static char * move_xpm[] = {
"16 16 5 1",
" 	c None",
".	c None",
"+	c #C0C0C0",
"@	c #000000",
"#	c #FF0000",
"......+@@+......",
".....+@##@+.....",
".....@#@@#@.....",
".....#+@@+#.....",
"......+@@+......",
".+@#.+@@@@+.#@+.",
"+@#++@@@@@@++#@+",
"@#@@@@@##@@@@@#@",
"@#@@@@@##@@@@@#@",
"+@#++@@@@@@++#@+",
".+@#.+@@@@+.#@+.",
"......+@@+......",
".....#+@@+#.....",
".....@#@@#@.....",
".....+@##@+.....",
"......+@@+......"};
