/* XPM */
static char * rotate_xpm[] = {
"16 16 9 1",
" 	c None",
".	c None",
"+	c #C0C0C0",
"@	c #808080",
"#	c #000000",
"$	c #FF0000",
"%	c #FF0080",
"&	c #FFB3B3",
"*	c #FF5151",
"...+@######@+...",
"..+@########@+..",
".+###+$++++###+.",
"+@##+$%$%$&++#@+",
"@##+$.$.....$+#@",
"##+&.......$%$##",
"##+*..+##+..$+##",
"##+%..####..%+##",
"##+*..+##+..$+##",
"##$%$.......&+##",
"@#+$.....$.$+##@",
"+@##+&$%$%$+##@+",
".+###++++$+###+.",
"..+@########@+..",
"...+@######@+...",
"................"};
