/* XPM */
static char * rotate_xpm[] = {
"16 15 3 1",
" 	c None",
".	c #3434FC",
"+	c #E6E6E6",
"  .+++++++.     ",
"  .++....++.    ",
"  .+.+...+.+.   ",
"  .+..+++++++.  ",
"  .+..+..+..+.  ",
"  .+..+..+..+.  ",
"  .+++++++..+.  ",
"   .+.+...+.+.  ",
" .. .++....++.. ",
".+. ..+++++++.+.",
"+. .+..........+",
"++..++.  .....+.",
".++++++. .++++. ",
" ...++.  .....  ",
"   .+.          "};
