/* XPM */
static char * treeent_xpm[] = {
"16 16 32 1",
" 	c None",
".	c #A9EB56",
"+	c #C7EF95",
"@	c #89D538",
"#	c #7CBC2A",
"$	c #77C92C",
"%	c #99DE45",
"&	c #6AB224",
"*	c #BBED87",
"=	c #55BB1B",
"-	c #319311",
";	c #55A71D",
">	c #3D9A14",
",	c #83CD32",
"'	c #4BA21A",
")	c #6ACA24",
"!	c #62AD22",
"~	c #8EDE39",
"{	c #76B929",
"]	c #4EB818",
"^	c #389613",
"/	c #5CAA20",
"(	c #72B728",
"_	c #76B927",
":	c #459E18",
"<	c #60BF20",
"[	c #6FB525",
"}	c #6FC528",
"|	c #68C224",
"1	c #79D12D",
"2	c #6ACE20",
"3	c #FFFFFF",
"     333        ",
"    3###3       ",
"   3#+.%#3      ",
"   3#.@%_3      ",
"33333{.{3333    ",
"3###{+.[[&!3    ",
"3#+++%,%~~/333  ",
"3###~,,$$@;3':3 ",
"3#33(@$$}1$:*~>3",
" 3 3[@$}|<<==]^3",
"3_33&@11<)>^]]-3",
"3{[&@/;'1)^3--3 ",
"3{*@!333>2^333  ",
"3(%@/3 3>2-3    ",
"3[&!;'3>^^-3    ",
"333333 33333    "};
