/* XPM */
static char * treephysicsent_xpm[] = {
"16 16 45 1",
" 	c None",
".	c #9BBCD7",
"+	c #F5D393",
"@	c #81ADD9",
"#	c #ECD09A",
"$	c #EAC681",
"%	c #8CB3D9",
"&	c #66A0D9",
"*	c #97B7CB",
"=	c #3E82B9",
"-	c #FFFFF0",
";	c #AB8943",
">	c #EDCD91",
",	c #F9F3E1",
"'	c #FFFFF5",
")	c #D3B170",
"!	c #E7C98F",
"~	c #FFEBC6",
"{	c #E1C48A",
"]	c #C1994A",
"^	c #FEFBF2",
"/	c #FFFBEE",
"(	c #C59C4D",
"_	c #C09746",
":	c #FBE7BF",
"<	c #C99F4E",
"[	c #FBE7C0",
"}	c #FFECB3",
"|	c #F9EED7",
"1	c #FDFBF1",
"2	c #FADDA2",
"3	c #FFF7D4",
"4	c #5491B9",
"5	c #FBE0A7",
"6	c #F2D291",
"7	c #F8E5B9",
"8	c #D6B673",
"9	c #E1BA78",
"0	c #3D77B9",
"a	c #AF8330",
"b	c #FAE4B8",
"c	c #C6A563",
"d	c #BEDAF5",
"e	c #EAF4FF",
"f	c #FFFFFF",
"fffffffffffff   ",
"f4==00000000f   ",
"f.eeeeeeeee@f   ",
"f.ddddddddd%f   ",
"f*e&eeeeeee@f   ",
"f*ddddddccccff  ",
"f.e&eeccb#bbccf ",
"f.dddcbb#!{#bb;f",
"f%e&ecfbbb#bb$<f",
"f%dddcf|/bb99$(f",
"f.%@@c-7[19$6+_f",
"fffffc'25:)$>+]f",
"    fc^f}~8++9af",
"     faa,399aaf ",
"      ffaaaaff  ",
"        ffff    "};
