/* XPM */
static char * treehiddenent_xpm[] = {
"16 16 29 1",
" 	c None",
".	c #FFFFFF",
"+	c #7CBC2A",
"@	c #C7EF95",
"#	c #A9EB56",
"$	c #99DE45",
"%	c #89D538",
"&	c #76B927",
"*	c #76B929",
"=	c #6FB525",
"-	c #DAAF39",
";	c #CF9B18",
">	c #83CD32",
",	c #FDF9E2",
"'	c #F6E28B",
")	c #8EDE39",
"!	c #72B728",
"~	c #D4A528",
"{	c #D8B454",
"]	c #EDCB61",
"^	c #C6870F",
"/	c #E6C45A",
"(	c #6AB224",
"_	c #79D12D",
":	c #BBED87",
"<	c #D3A736",
"[	c #6ACE20",
"}	c #319311",
"|	c #389613",
"     ...        ",
"    .+++.       ",
"   .+@#$+.      ",
"   .+#%$&.      ",
".....*#*....    ",
".+++*@#==-;;.   ",
".+@@@$>$-,'';.  ",
".+++)>>-,';;;;. ",
".+..!%~,'';.{]^.",
" . .=%~''''/{]^.",
".&..(%_~''']]^..",
".....{-,'^]]^.. ",
".*:%.<,];;^^..  ",
".!$.<,];.[}.    ",
".=(.;;;.||}.    ",
"............    "};
