/* XPM */
static char *condition_xpm[] = {
/* columns rows colors chars-per-pixel */
"16 16 24 1",
"% c Black",
"@ c #FFFFFF",
". c #808080",
"> c #6F6FEF",
"$ c #7F7FFF",
"3 c #555555",
"O c #AFAFAF",
"o c #BFBFBF",
"1 c #404040",
": c #AFAFEF",
"4 c #2A2A2A",
"- c #0000FF",
"& c #CFCFCF",
"; c #505050",
"= c #BFBFFF",
"2 c #5F5F5F",
"  c None",
"# c #DFDFDF",
"5 c #606060",
"< c #6F6F6F",
"* c #3030EF",
"X c #959595",
"+ c #EFEFEF",
", c #7F7F7F",
/* pixels */
"    .XoooX.     ",
"  .O+@@@@@+O.   ",
" .#@@+$$$+@@o%  ",
".&@@@*+=-*@@@O% ",
"X@@@@--+--@@@@;.",
"o@@@@::>-=@@@@,.",
"o@@@@@@-:@@@@@,.",
"O@@@@@@$@@@@@@<.",
".+@@@@:-:@@@@+1.",
" ,@@@@:-:@@@@2..",
"  3+@@@@@@@+2.. ",
"   4<O@@@O<1..  ",
"    .51O@1...   ",
"      .3@1.     ",
"        31.     ",
"         ..     "
};
